<mxfile host="app.diagrams.net" modified="2023-03-29T09:29:14.930Z" agent="Mozilla/5.0 (Windows NT 10.0; Win64; x64) AppleWebKit/537.36 (KHTML, like Gecko) Chrome/110.0.0.0 Safari/537.36 Edg/110.0.1587.57" etag="Pnu1alnOU81fbsqkMs8t" version="21.1.1" type="github">
  <diagram name="第 1 页" id="--CybKltEE2m2PLxuRyU">
    <mxGraphModel dx="1387" dy="774" grid="1" gridSize="10" guides="1" tooltips="1" connect="1" arrows="1" fold="1" page="1" pageScale="1" pageWidth="827" pageHeight="1169" math="0" shadow="0">
      <root>
        <mxCell id="0" />
        <mxCell id="1" parent="0" />
        <mxCell id="MjKTeNPsA5R9ctwxj7CJ-1" value="&lt;font style=&quot;font-size: 18px;&quot;&gt;CS CMD handler application&lt;/font&gt;" style="rounded=0;whiteSpace=wrap;html=1;fillColor=#dae8fc;strokeColor=#6c8ebf;" vertex="1" parent="1">
          <mxGeometry x="140" y="240" width="150" height="110" as="geometry" />
        </mxCell>
        <mxCell id="MjKTeNPsA5R9ctwxj7CJ-2" value="&lt;font style=&quot;font-size: 18px;&quot;&gt;&amp;nbsp;openamp host side application&lt;/font&gt;" style="rounded=0;whiteSpace=wrap;html=1;fillColor=#d5e8d4;strokeColor=#82b366;" vertex="1" parent="1">
          <mxGeometry x="490" y="240" width="150" height="110" as="geometry" />
        </mxCell>
        <mxCell id="MjKTeNPsA5R9ctwxj7CJ-4" value="" style="shape=flexArrow;endArrow=classic;html=1;rounded=0;entryX=-0.007;entryY=0.173;entryDx=0;entryDy=0;entryPerimeter=0;fillColor=#dae8fc;strokeColor=#6c8ebf;" edge="1" parent="1" target="MjKTeNPsA5R9ctwxj7CJ-2">
          <mxGeometry width="50" height="50" relative="1" as="geometry">
            <mxPoint x="290" y="260" as="sourcePoint" />
            <mxPoint x="390" y="260" as="targetPoint" />
          </mxGeometry>
        </mxCell>
        <mxCell id="MjKTeNPsA5R9ctwxj7CJ-7" value="&lt;font style=&quot;font-size: 16px; background-color: rgb(255, 255, 255);&quot;&gt;IPC channel: &lt;br&gt;send cmc and para&lt;/font&gt;" style="edgeLabel;html=1;align=center;verticalAlign=middle;resizable=0;points=[];fillColor=#49FF42;" vertex="1" connectable="0" parent="MjKTeNPsA5R9ctwxj7CJ-4">
          <mxGeometry x="-0.3721" y="8" relative="1" as="geometry">
            <mxPoint x="48" y="-2" as="offset" />
          </mxGeometry>
        </mxCell>
        <mxCell id="MjKTeNPsA5R9ctwxj7CJ-5" value="" style="shape=flexArrow;endArrow=classic;html=1;rounded=0;exitX=0;exitY=0.75;exitDx=0;exitDy=0;entryX=1;entryY=0.75;entryDx=0;entryDy=0;fillColor=#d5e8d4;strokeColor=#82b366;" edge="1" parent="1" source="MjKTeNPsA5R9ctwxj7CJ-2" target="MjKTeNPsA5R9ctwxj7CJ-1">
          <mxGeometry width="50" height="50" relative="1" as="geometry">
            <mxPoint x="450" y="320" as="sourcePoint" />
            <mxPoint x="290" y="320" as="targetPoint" />
          </mxGeometry>
        </mxCell>
        <mxCell id="MjKTeNPsA5R9ctwxj7CJ-8" value="&lt;font style=&quot;font-size: 16px; background-color: rgb(255, 255, 255);&quot;&gt;IPC channel: &lt;br&gt;return ret&lt;/font&gt;" style="edgeLabel;html=1;align=center;verticalAlign=middle;resizable=0;points=[];" vertex="1" connectable="0" parent="MjKTeNPsA5R9ctwxj7CJ-5">
          <mxGeometry x="0.4824" y="-4" relative="1" as="geometry">
            <mxPoint x="48" as="offset" />
          </mxGeometry>
        </mxCell>
        <mxCell id="MjKTeNPsA5R9ctwxj7CJ-9" value="&lt;font style=&quot;font-size: 18px;&quot;&gt;CS CMD handler application&lt;/font&gt;" style="rounded=0;whiteSpace=wrap;html=1;fillColor=#dae8fc;strokeColor=#6c8ebf;" vertex="1" parent="1">
          <mxGeometry x="140" y="240" width="150" height="110" as="geometry" />
        </mxCell>
        <mxCell id="MjKTeNPsA5R9ctwxj7CJ-10" value="&lt;font style=&quot;font-size: 18px;&quot;&gt;&amp;nbsp;openamp host side application&lt;/font&gt;" style="rounded=0;whiteSpace=wrap;html=1;fillColor=#d5e8d4;strokeColor=#82b366;" vertex="1" parent="1">
          <mxGeometry x="490" y="240" width="150" height="110" as="geometry" />
        </mxCell>
        <mxCell id="MjKTeNPsA5R9ctwxj7CJ-11" value="" style="shape=flexArrow;endArrow=classic;html=1;rounded=0;entryX=-0.007;entryY=0.173;entryDx=0;entryDy=0;entryPerimeter=0;fillColor=#dae8fc;strokeColor=#6c8ebf;" edge="1" parent="1" target="MjKTeNPsA5R9ctwxj7CJ-10">
          <mxGeometry width="50" height="50" relative="1" as="geometry">
            <mxPoint x="290" y="260" as="sourcePoint" />
            <mxPoint x="390" y="260" as="targetPoint" />
          </mxGeometry>
        </mxCell>
        <mxCell id="MjKTeNPsA5R9ctwxj7CJ-12" value="&lt;font style=&quot;font-size: 16px; background-color: rgb(255, 255, 255);&quot;&gt;IPC channel: &lt;br&gt;send cmc and para&lt;/font&gt;" style="edgeLabel;html=1;align=center;verticalAlign=middle;resizable=0;points=[];fillColor=#49FF42;" vertex="1" connectable="0" parent="MjKTeNPsA5R9ctwxj7CJ-11">
          <mxGeometry x="-0.3721" y="8" relative="1" as="geometry">
            <mxPoint x="48" y="-2" as="offset" />
          </mxGeometry>
        </mxCell>
        <mxCell id="MjKTeNPsA5R9ctwxj7CJ-13" value="" style="shape=flexArrow;endArrow=classic;html=1;rounded=0;exitX=0;exitY=0.75;exitDx=0;exitDy=0;entryX=1;entryY=0.75;entryDx=0;entryDy=0;fillColor=#d5e8d4;strokeColor=#82b366;" edge="1" parent="1" source="MjKTeNPsA5R9ctwxj7CJ-10" target="MjKTeNPsA5R9ctwxj7CJ-9">
          <mxGeometry width="50" height="50" relative="1" as="geometry">
            <mxPoint x="450" y="320" as="sourcePoint" />
            <mxPoint x="290" y="320" as="targetPoint" />
          </mxGeometry>
        </mxCell>
        <mxCell id="MjKTeNPsA5R9ctwxj7CJ-14" value="&lt;font style=&quot;font-size: 16px; background-color: rgb(255, 255, 255);&quot;&gt;IPC channel: &lt;br&gt;return ret&lt;/font&gt;" style="edgeLabel;html=1;align=center;verticalAlign=middle;resizable=0;points=[];" vertex="1" connectable="0" parent="MjKTeNPsA5R9ctwxj7CJ-13">
          <mxGeometry x="0.4824" y="-4" relative="1" as="geometry">
            <mxPoint x="48" as="offset" />
          </mxGeometry>
        </mxCell>
      </root>
    </mxGraphModel>
  </diagram>
</mxfile>
